<svg id="_x31__px" height="512" viewBox="0 0 24 24" width="512" xmlns="http://www.w3.org/2000/svg"><path d="m20.5 18c-1.76 0-3.221-1.306-3.464-3h-10.072c-.243 1.694-1.704 3-3.464 3-1.93 0-3.5-1.57-3.5-3.5 0-.951.383-1.847 1.05-2.5-.667-.653-1.05-1.549-1.05-2.5 0-1.93 1.57-3.5 3.5-3.5 1.76 0 3.221 1.306 3.464 3h10.071c.243-1.694 1.704-3 3.464-3 1.931 0 3.501 1.57 3.501 3.5 0 .951-.383 1.847-1.05 2.5.667.653 1.05 1.549 1.05 2.5 0 1.93-1.57 3.5-3.5 3.5zm-14-4h11c.276 0 .5.224.5.5 0 1.378 1.122 2.5 2.5 2.5s2.5-1.122 2.5-2.5c0-.838-.417-1.618-1.117-2.084-.139-.093-.223-.249-.223-.416s.083-.323.223-.416c.7-.466 1.117-1.246 1.117-2.084 0-1.378-1.122-2.5-2.5-2.5s-2.5 1.122-2.5 2.5c0 .276-.224.5-.5.5h-11c-.276 0-.5-.224-.5-.5 0-1.378-1.122-2.5-2.5-2.5s-2.5 1.122-2.5 2.5c0 .838.417 1.618 1.117 2.084.139.093.223.249.223.416s-.083.323-.223.416c-.7.466-1.117 1.246-1.117 2.084 0 1.378 1.122 2.5 2.5 2.5s2.5-1.122 2.5-2.5c0-.276.224-.5.5-.5z"/></svg>